<svg width="206" height="59" viewBox="0 0 206 59" fill="none" xmlns="http://www.w3.org/2000/svg">
<path d="M204.046 52.1958C204.046 55.34 201.447 57.8869 198.231 57.8869H7.9083C4.69401 57.8869 2.08496 55.34 2.08496 52.1958V6.81174C2.08496 3.66904 4.69401 1.11328 7.9083 1.11328H198.229C201.447 1.11328 204.045 3.66904 204.045 6.81174L204.046 52.1958Z" fill="black"/>
<path d="M197.617 1.18185C201.119 1.18185 203.969 3.96038 203.969 7.37501V51.625C203.969 55.0396 201.119 57.8182 197.617 57.8182H8.5143C5.01212 57.8182 2.16234 55.0396 2.16234 51.625V7.37501C2.16234 3.96038 5.01212 1.18185 8.5143 1.18185H197.617ZM197.617 5.4802e-06H8.5143C4.35593 5.4802e-06 0.950195 3.3206 0.950195 7.37501V51.625C0.950195 55.6794 4.35593 59 8.5143 59H197.617C201.775 59 205.181 55.6794 205.181 51.625V7.37501C205.181 3.3206 201.775 5.4802e-06 197.617 5.4802e-06Z" fill="#A6A6A6"/>
<path d="M46.5282 29.1815C46.4843 24.4276 50.5205 22.1148 50.7051 22.0071C48.4192 18.7577 44.8762 18.3137 43.6311 18.2783C40.6554 17.973 37.7689 20.0144 36.2531 20.0144C34.707 20.0144 32.3727 18.3078 29.8569 18.3579C26.6194 18.4066 23.5908 20.2341 21.9297 23.072C18.5016 28.8585 21.0583 37.3618 24.3426 42.0391C25.9856 44.3297 27.9053 46.8874 30.4181 46.7974C32.8765 46.6986 33.7947 45.2693 36.7614 45.2693C39.7008 45.2693 40.5631 46.7974 43.1258 46.7399C45.7642 46.6986 47.4253 44.4389 49.0107 42.1276C50.9093 39.5021 51.6717 36.9164 51.702 36.7836C51.64 36.763 46.5781 34.8794 46.5282 29.1815Z" fill="white"/>
<path d="M41.6871 15.2014C43.0093 13.5893 43.914 11.3959 43.6629 9.17017C41.7492 9.25277 39.3559 10.4608 37.9777 12.0376C36.7584 13.427 35.6691 15.7044 35.9505 17.8461C38.1002 18.0025 40.3074 16.7885 41.6871 15.2014Z" fill="white"/>
<path d="M82.1059 46.4684H78.6703L76.7883 40.7026H70.2469L68.4542 46.4684H65.1094L71.5903 26.8391H75.5932L82.1059 46.4684ZM76.221 38.2836L74.5191 33.158C74.3391 32.6344 74.0017 31.4013 73.504 29.4602H73.4435C73.2453 30.295 72.9261 31.5281 72.4874 33.158L70.8157 38.2836H76.221Z" fill="white"/>
<path d="M98.7729 39.2173C98.7729 41.6245 98.1058 43.5272 96.7715 44.924C95.5764 46.1675 94.0923 46.7884 92.3208 46.7884C90.4086 46.7884 89.0349 46.1188 88.1983 44.7795H88.1378V52.2356H84.9125V36.9738C84.9125 35.4604 84.8716 33.9073 84.793 32.3143H87.6295L87.8095 34.5577H87.87C88.9457 32.8674 90.578 32.0237 92.7686 32.0237C94.4811 32.0237 95.9107 32.683 97.0544 34.0031C98.2011 35.3247 98.7729 37.0623 98.7729 39.2173ZM95.4871 39.3323C95.4871 37.9547 95.1694 36.8189 94.531 35.9251C93.8336 34.9929 92.8971 34.5268 91.7232 34.5268C90.9275 34.5268 90.2043 34.7864 89.5584 35.2982C88.9109 35.8144 88.4873 36.4885 88.2891 37.3234C88.1892 37.7128 88.1393 38.0314 88.1393 38.2821V40.6421C88.1393 41.6717 88.4631 42.5404 89.1106 43.2499C89.758 43.9594 90.5992 44.3134 91.6339 44.3134C92.8487 44.3134 93.7943 43.8561 94.4705 42.9446C95.1482 42.0316 95.4871 40.828 95.4871 39.3323Z" fill="white"/>
<path d="M115.47 39.2173C115.47 41.6245 114.803 43.5272 113.467 44.924C112.273 46.1675 110.789 46.7884 109.017 46.7884C107.105 46.7884 105.732 46.1188 104.897 44.7795H104.836V52.2356H101.611V36.9738C101.611 35.4604 101.57 33.9073 101.491 32.3143H104.328L104.508 34.5577H104.568C105.642 32.8674 107.275 32.0237 109.467 32.0237C111.178 32.0237 112.607 32.683 113.754 34.0031C114.896 35.3247 115.47 37.0623 115.47 39.2173ZM112.184 39.3323C112.184 37.9547 111.865 36.8189 111.226 35.9251C110.529 34.9929 109.595 34.5268 108.42 34.5268C107.623 34.5268 106.901 34.7864 106.254 35.2982C105.606 35.8144 105.184 36.4885 104.986 37.3234C104.887 37.7128 104.836 38.0314 104.836 38.2821V40.6421C104.836 41.6717 105.16 42.5404 105.804 43.2499C106.452 43.9579 107.293 44.3134 108.331 44.3134C109.545 44.3134 110.491 43.8561 111.167 42.9446C111.845 42.0316 112.184 40.828 112.184 39.3323Z" fill="white"/>
<path d="M134.138 40.9637C134.138 42.6334 133.544 43.9919 132.35 45.0406C131.039 46.1867 129.213 46.759 126.866 46.759C124.7 46.759 122.963 46.3519 121.648 45.5362L122.396 42.9152C123.812 43.75 125.365 44.1689 127.058 44.1689C128.273 44.1689 129.219 43.9005 129.898 43.3665C130.574 42.8326 130.911 42.1157 130.911 41.2219C130.911 40.4254 130.633 39.7542 130.075 39.21C129.52 38.6657 128.592 38.1598 127.297 37.6922C123.772 36.4104 122.012 34.5327 122.012 32.0636C122.012 30.4499 122.629 29.1269 123.865 28.0973C125.096 27.0663 126.739 26.5515 128.793 26.5515C130.626 26.5515 132.147 26.8627 133.362 27.4837L132.556 30.0473C131.421 29.4455 130.138 29.1446 128.703 29.1446C127.568 29.1446 126.682 29.4174 126.046 29.9602C125.509 30.4455 125.24 31.037 125.24 31.7376C125.24 32.5135 125.547 33.1551 126.164 33.6595C126.701 34.1256 127.677 34.6301 129.093 35.1744C130.825 35.8543 132.097 36.6494 132.916 37.5609C133.731 38.4695 134.138 39.6067 134.138 40.9637Z" fill="white"/>
<path d="M144.802 34.6743H141.247V41.5463C141.247 43.2942 141.873 44.1674 143.129 44.1674C143.705 44.1674 144.183 44.1187 144.561 44.0214L144.651 46.4094C144.015 46.641 143.179 46.7575 142.142 46.7575C140.869 46.7575 139.873 46.3784 139.155 45.6218C138.439 44.8636 138.079 43.5922 138.079 41.8059V34.6714H135.961V32.3114H138.079V29.7198L141.247 28.7876V32.3114H144.802V34.6743Z" fill="white"/>
<path d="M160.842 39.2748C160.842 41.4504 160.204 43.2366 158.93 44.6334C157.594 46.0716 155.821 46.7884 153.611 46.7884C151.481 46.7884 149.785 46.0996 148.52 44.7219C147.255 43.3443 146.623 41.6053 146.623 39.5093C146.623 37.316 147.274 35.5194 148.579 34.1226C149.882 32.7243 151.64 32.0251 153.85 32.0251C155.98 32.0251 157.694 32.714 158.987 34.0931C160.225 35.4309 160.842 37.1581 160.842 39.2748ZM157.496 39.3765C157.496 38.0712 157.21 36.9516 156.63 36.018C155.954 34.8881 154.987 34.3247 153.735 34.3247C152.438 34.3247 151.453 34.8896 150.777 36.018C150.198 36.9531 149.912 38.0903 149.912 39.4355C149.912 40.7409 150.198 41.8604 150.777 42.7926C151.475 43.9225 152.449 44.4859 153.706 44.4859C154.938 44.4859 155.904 43.9107 156.602 42.7631C157.196 41.8118 157.496 40.6804 157.496 39.3765Z" fill="white"/>
<path d="M171.326 35.0799C171.007 35.0224 170.667 34.9929 170.31 34.9929C169.175 34.9929 168.298 35.4103 167.681 36.2466C167.143 36.9841 166.874 37.9163 166.874 39.0417V46.4684H163.65L163.681 36.7717C163.681 35.1404 163.64 33.655 163.56 32.3157H166.369L166.487 35.0238H166.576C166.917 34.0931 167.454 33.3438 168.189 32.7818C168.907 32.2759 169.683 32.0237 170.52 32.0237C170.818 32.0237 171.087 32.0443 171.326 32.0812V35.0799Z" fill="white"/>
<path d="M185.751 38.7218C185.751 39.2853 185.713 39.7602 185.633 40.1482H175.957C175.995 41.5465 176.462 42.6158 177.361 43.3533C178.176 44.0127 179.231 44.3431 180.526 44.3431C181.958 44.3431 183.265 44.1203 184.441 43.6734L184.946 45.8564C183.572 46.4405 181.951 46.7311 180.079 46.7311C177.828 46.7311 176.061 46.085 174.775 44.7944C173.493 43.5038 172.85 41.7707 172.85 39.5965C172.85 37.4622 173.447 35.6848 174.644 34.2673C175.896 32.754 177.589 31.9973 179.719 31.9973C181.812 31.9973 183.395 32.754 184.471 34.2673C185.323 35.4695 185.751 36.9563 185.751 38.7218ZM182.675 37.9062C182.697 36.974 182.486 36.1686 182.049 35.4886C181.491 34.614 180.633 34.1774 179.479 34.1774C178.424 34.1774 177.567 34.6036 176.912 35.4591C176.374 36.1391 176.055 36.9548 175.957 37.9047H182.675V37.9062Z" fill="white"/>
<path d="M75.1543 14.7633C75.1543 16.4994 74.6203 17.8063 73.5538 18.6839C72.5659 19.4937 71.162 19.8993 69.3436 19.8993C68.4419 19.8993 67.6704 19.8609 67.0244 19.7842V10.2985C67.8671 10.1657 68.7747 10.0979 69.7551 10.0979C71.4872 10.0979 72.7928 10.4652 73.6733 11.1997C74.6596 12.0302 75.1543 13.2175 75.1543 14.7633ZM73.4827 14.8061C73.4827 13.6807 73.1771 12.8178 72.5659 12.216C71.9547 11.6157 71.0621 11.3148 69.8867 11.3148C69.3874 11.3148 68.9623 11.3472 68.6099 11.4151V18.6264C68.805 18.6559 69.162 18.6691 69.6809 18.6691C70.8942 18.6691 71.8307 18.3402 72.4902 17.6824C73.1498 17.0245 73.4827 16.0658 73.4827 14.8061Z" fill="white"/>
<path d="M84.0179 16.2796C84.0179 17.349 83.7047 18.2252 83.0784 18.9125C82.4219 19.619 81.552 19.9716 80.4658 19.9716C79.4189 19.9716 78.5854 19.6338 77.9636 18.9553C77.3433 18.2783 77.0332 17.4242 77.0332 16.3947C77.0332 15.3179 77.3524 14.4344 77.9938 13.7485C78.6353 13.0627 79.4976 12.719 80.5838 12.719C81.6307 12.719 82.4718 13.0568 83.1087 13.7338C83.7138 14.3916 84.0179 15.2412 84.0179 16.2796ZM82.3735 16.3298C82.3735 15.6882 82.2313 15.138 81.9484 14.6793C81.6155 14.1247 81.142 13.8474 80.5263 13.8474C79.8894 13.8474 79.4053 14.1247 79.0725 14.6793C78.7881 15.138 78.6474 15.697 78.6474 16.3578C78.6474 16.9994 78.7896 17.5496 79.0725 18.0083C79.4159 18.5629 79.8939 18.8402 80.5112 18.8402C81.1163 18.8402 81.5913 18.5585 81.9332 17.9936C82.2267 17.526 82.3735 16.9714 82.3735 16.3298Z" fill="white"/>
<path d="M95.9029 12.8606L93.6715 19.8137H92.2192L91.2948 16.7944C91.0603 16.0407 90.8697 15.2914 90.7215 14.548H90.6927C90.555 15.312 90.3644 16.0599 90.1194 16.7944L89.1375 19.8137H87.6686L85.5703 12.8606H87.1996L88.0059 16.1661C88.2011 16.9478 88.3615 17.6927 88.4901 18.3977H88.5188C88.6368 17.8166 88.8319 17.0761 89.1073 16.1808L90.1194 12.8621H91.4113L92.381 16.11C92.6155 16.9021 92.8061 17.6647 92.9529 18.3992H92.9967C93.1042 17.6838 93.266 16.9213 93.4808 16.11L94.3462 12.8621H95.9029V12.8606Z" fill="white"/>
<path d="M104.122 19.8138H102.537V15.8313C102.537 14.6041 102.059 13.9905 101.099 13.9905C100.629 13.9905 100.249 14.1586 99.9542 14.4964C99.6623 14.8342 99.514 15.2324 99.514 15.6882V19.8123H97.9286V14.8475C97.9286 14.2368 97.9089 13.5745 97.8711 12.8577H99.2644L99.3385 13.9448H99.3824C99.567 13.607 99.8423 13.3282 100.204 13.1055C100.633 12.8459 101.115 12.7146 101.641 12.7146C102.307 12.7146 102.86 12.924 103.301 13.3444C103.848 13.8592 104.122 14.6277 104.122 15.6484V19.8138Z" fill="white"/>
<path d="M108.494 19.8137H106.91V9.67017H108.494V19.8137Z" fill="white"/>
<path d="M117.827 16.2796C117.827 17.349 117.514 18.2252 116.888 18.9125C116.231 19.619 115.36 19.9716 114.275 19.9716C113.227 19.9716 112.393 19.6338 111.773 18.9553C111.153 18.2783 110.843 17.4242 110.843 16.3947C110.843 15.3179 111.162 14.4344 111.803 13.7485C112.445 13.0627 113.307 12.719 114.392 12.719C115.44 12.719 116.28 13.0568 116.918 13.7338C117.523 14.3916 117.827 15.2412 117.827 16.2796ZM116.182 16.3298C116.182 15.6882 116.039 15.138 115.756 14.6793C115.425 14.1247 114.95 13.8474 114.336 13.8474C113.697 13.8474 113.213 14.1247 112.882 14.6793C112.598 15.138 112.457 15.697 112.457 16.3578C112.457 16.9994 112.599 17.5496 112.882 18.0083C113.225 18.5629 113.704 18.8402 114.321 18.8402C114.926 18.8402 115.399 18.5585 115.741 17.9936C116.036 17.526 116.182 16.9714 116.182 16.3298Z" fill="white"/>
<path d="M125.501 19.8137H124.078L123.96 19.0128H123.916C123.429 19.6515 122.734 19.9716 121.833 19.9716C121.159 19.9716 120.615 19.7606 120.205 19.3417C119.833 18.9612 119.646 18.4877 119.646 17.9257C119.646 17.0761 120.01 16.4286 120.74 15.9802C121.469 15.5318 122.495 15.312 123.816 15.3224V15.1926C123.816 14.2766 123.323 13.8193 122.335 13.8193C121.631 13.8193 121.011 13.9919 120.476 14.3341L120.153 13.3193C120.816 12.9196 121.634 12.719 122.6 12.719C124.463 12.719 125.398 13.6777 125.398 15.5952V18.1558C125.398 18.8506 125.433 19.4037 125.501 19.8137ZM123.855 17.4242V16.3519C122.106 16.3224 121.232 16.79 121.232 17.7532C121.232 18.116 121.332 18.3874 121.536 18.5688C121.74 18.7503 122 18.8402 122.311 18.8402C122.659 18.8402 122.984 18.7326 123.28 18.5187C123.578 18.3033 123.761 18.0305 123.829 17.6956C123.846 17.6204 123.855 17.529 123.855 17.4242Z" fill="white"/>
<path d="M134.51 19.8137H133.103L133.029 18.6972H132.985C132.536 19.5468 131.77 19.9716 130.694 19.9716C129.835 19.9716 129.12 19.6426 128.552 18.9848C127.985 18.3269 127.702 17.4729 127.702 16.4242C127.702 15.2988 128.009 14.3872 128.626 13.691C129.224 13.042 129.956 12.7175 130.828 12.7175C131.785 12.7175 132.455 13.0317 132.837 13.6615H132.867V9.67017H134.454V17.9405C134.454 18.6175 134.472 19.2414 134.51 19.8137ZM132.867 16.8814V15.7221C132.867 15.5215 132.852 15.3592 132.823 15.2353C132.734 14.8636 132.542 14.5509 132.25 14.2987C131.955 14.0465 131.599 13.9196 131.189 13.9196C130.598 13.9196 130.135 14.1483 129.794 14.607C129.457 15.0657 129.286 15.6513 129.286 16.3667C129.286 17.054 129.448 17.6116 129.773 18.0408C130.117 18.498 130.58 18.7267 131.159 18.7267C131.679 18.7267 132.095 18.5364 132.412 18.1544C132.717 17.8018 132.867 17.377 132.867 16.8814Z" fill="white"/>
<path d="M148.07 16.2796C148.07 17.349 147.756 18.2252 147.13 18.9125C146.474 19.619 145.605 19.9716 144.518 19.9716C143.472 19.9716 142.639 19.6338 142.015 18.9553C141.395 18.2783 141.085 17.4242 141.085 16.3947C141.085 15.3179 141.404 14.4344 142.046 13.7485C142.687 13.0627 143.549 12.719 144.637 12.719C145.682 12.719 146.525 13.0568 147.16 13.7338C147.766 14.3916 148.07 15.2412 148.07 16.2796ZM146.427 16.3298C146.427 15.6882 146.285 15.138 146.002 14.6793C145.667 14.1247 145.195 13.8474 144.578 13.8474C143.943 13.8474 143.459 14.1247 143.124 14.6793C142.84 15.138 142.699 15.697 142.699 16.3578C142.699 16.9994 142.841 17.5496 143.124 18.0083C143.468 18.5629 143.946 18.8402 144.563 18.8402C145.168 18.8402 145.645 18.5585 145.987 17.9936C146.278 17.526 146.427 16.9714 146.427 16.3298Z" fill="white"/>
<path d="M156.594 19.8138H155.01V15.8313C155.01 14.6041 154.532 13.9905 153.572 13.9905C153.101 13.9905 152.721 14.1586 152.428 14.4964C152.134 14.8342 151.988 15.2324 151.988 15.6882V19.8123H150.401V14.8475C150.401 14.2368 150.383 13.5745 150.345 12.8577H151.737L151.811 13.9448H151.855C152.041 13.607 152.316 13.3282 152.676 13.1055C153.107 12.8459 153.587 12.7146 154.115 12.7146C154.779 12.7146 155.332 12.924 155.773 13.3444C156.322 13.8592 156.594 14.6277 156.594 15.6484V19.8138Z" fill="white"/>
<path d="M167.264 14.0184H165.518V17.3962C165.518 18.2546 165.829 18.6839 166.443 18.6839C166.727 18.6839 166.963 18.6603 167.149 18.6116L167.19 19.7842C166.877 19.8993 166.465 19.9568 165.959 19.9568C165.332 19.9568 164.845 19.7709 164.493 19.3992C164.139 19.0275 163.963 18.4021 163.963 17.5245V14.0184H162.921V12.8606H163.963V11.5862L165.517 11.1289V12.8591H167.263V14.0184H167.264Z" fill="white"/>
<path d="M175.657 19.8137H174.07V15.8607C174.07 14.6144 173.592 13.9904 172.635 13.9904C171.9 13.9904 171.397 14.3518 171.122 15.0746C171.075 15.2265 171.048 15.4123 171.048 15.6306V19.8123H169.464V9.67017H171.048V13.8606H171.078C171.577 13.0981 172.293 12.7175 173.22 12.7175C173.877 12.7175 174.42 12.927 174.851 13.3473C175.388 13.871 175.657 14.6498 175.657 15.6793V19.8137Z" fill="white"/>
<path d="M184.315 16.0083C184.315 16.2856 184.294 16.5187 184.256 16.709H179.501C179.522 17.3963 179.749 17.9199 180.189 18.2828C180.592 18.6073 181.111 18.7695 181.746 18.7695C182.45 18.7695 183.091 18.6604 183.669 18.4406L183.917 19.5144C183.241 19.8006 182.445 19.9436 181.524 19.9436C180.419 19.9436 179.549 19.6265 178.92 18.9923C178.288 18.358 177.975 17.5069 177.975 16.439C177.975 15.3903 178.267 14.5171 178.855 13.8209C179.469 13.0775 180.3 12.7058 181.348 12.7058C182.374 12.7058 183.153 13.0775 183.679 13.8209C184.105 14.4109 184.315 15.141 184.315 16.0083ZM182.802 15.6086C182.814 15.1499 182.71 14.7546 182.495 14.4212C182.22 13.992 181.801 13.7767 181.233 13.7767C180.716 13.7767 180.294 13.9861 179.972 14.4065C179.708 14.7413 179.552 15.141 179.501 15.6086H182.802Z" fill="white"/>
</svg>
