<svg width="204" height="59" viewBox="0 0 204 59" fill="none" xmlns="http://www.w3.org/2000/svg">
<path d="M196.396 59H7.55371C3.40106 59 0 55.6794 0 51.625V7.375C0 3.32059 3.40106 7.56029e-07 7.55371 7.56029e-07H196.396C200.549 7.56029e-07 203.95 3.32059 203.95 7.375V51.625C203.95 55.6794 200.549 59 196.396 59Z" fill="black"/>
<path d="M196.396 1.18184C199.894 1.18184 202.74 3.96038 202.74 7.375V51.625C202.74 55.0396 199.894 57.8182 196.396 57.8182H7.55371C4.05634 57.8182 1.21048 55.0396 1.21048 51.625V7.375C1.21048 3.96038 4.05634 1.18184 7.55371 1.18184H196.396ZM196.396 7.56029e-07H7.55371C3.40106 7.56029e-07 0 3.32059 0 7.375V51.625C0 55.6794 3.40106 59 7.55371 59H196.396C200.549 59 203.95 55.6794 203.95 51.625V7.375C203.95 3.32059 200.549 7.56029e-07 196.396 7.56029e-07Z" fill="#A6A6A6"/>
<path d="M71.6353 15.1096C71.6353 16.3413 71.2576 17.3277 70.5136 18.0633C69.6581 18.9354 68.5439 19.3742 67.1786 19.3742C65.8737 19.3742 64.7595 18.928 63.8455 18.0486C62.9297 17.1562 62.4727 16.061 62.4727 14.7501C62.4727 13.4392 62.9297 12.344 63.8455 11.459C64.7595 10.5722 65.8737 10.126 67.1786 10.126C67.8282 10.126 68.4476 10.2569 69.0387 10.5003C69.6279 10.7455 70.1076 11.0774 70.455 11.4867L69.6657 12.2647C69.0595 11.5659 68.2342 11.2212 67.1786 11.2212C66.2268 11.2212 65.4016 11.5457 64.701 12.2002C64.0079 12.8566 63.6605 13.7065 63.6605 14.7501C63.6605 15.7937 64.0079 16.651 64.701 17.3074C65.4016 17.9545 66.2268 18.2864 67.1786 18.2864C68.1889 18.2864 69.0387 17.9545 69.7091 17.3C70.151 16.8667 70.4022 16.2694 70.4683 15.506H67.1786V14.4404H71.5673C71.6202 14.6708 71.6353 14.8939 71.6353 15.1096V15.1096Z" fill="white" stroke="white" stroke-width="0.16" stroke-miterlimit="10"/>
<path d="M78.5981 11.4146H74.4756V14.2171H78.1921V15.2828H74.4756V18.0853H78.5981V19.1712H73.3086V10.3286H78.5981V11.4146Z" fill="white" stroke="white" stroke-width="0.16" stroke-miterlimit="10"/>
<path d="M83.5121 19.1712H82.345V11.4146H79.8164V10.3286H86.0425V11.4146H83.5121V19.1712V19.1712Z" fill="white" stroke="white" stroke-width="0.16" stroke-miterlimit="10"/>
<path d="M90.5479 19.1712V10.3286H91.713V19.1712H90.5479Z" fill="white" stroke="white" stroke-width="0.16" stroke-miterlimit="10"/>
<path d="M96.8783 19.1712H95.7207V11.4146H93.1826V10.3286H99.4163V11.4146H96.8783V19.1712Z" fill="white" stroke="white" stroke-width="0.16" stroke-miterlimit="10"/>
<path d="M111.204 18.0338C110.311 18.928 109.204 19.3742 107.884 19.3742C106.557 19.3742 105.45 18.928 104.557 18.0338C103.665 17.1414 103.222 16.0463 103.222 14.7501C103.222 13.4539 103.665 12.3588 104.557 11.4664C105.45 10.5722 106.557 10.126 107.884 10.126C109.197 10.126 110.303 10.5722 111.197 11.4738C112.095 12.3735 112.539 13.4613 112.539 14.7501C112.539 16.0463 112.095 17.1414 111.204 18.0338ZM105.42 17.2926C106.092 17.9545 106.91 18.2864 107.884 18.2864C108.851 18.2864 109.676 17.9545 110.341 17.2926C111.011 16.6307 111.351 15.7808 111.351 14.7501C111.351 13.7194 111.011 12.8695 110.341 12.2076C109.676 11.5457 108.851 11.2138 107.884 11.2138C106.91 11.2138 106.092 11.5457 105.42 12.2076C104.749 12.8695 104.41 13.7194 104.41 14.7501C104.41 15.7808 104.749 16.6307 105.42 17.2926V17.2926Z" fill="white" stroke="white" stroke-width="0.16" stroke-miterlimit="10"/>
<path d="M114.176 19.1712V10.3286H115.592L119.996 17.2058H120.047L119.996 15.5059V10.3286H121.161V19.1712H119.945L115.333 11.9548H115.282L115.333 13.6621V19.1712H114.176V19.1712Z" fill="white" stroke="white" stroke-width="0.16" stroke-miterlimit="10"/>
<path d="M102.934 32.085C99.3861 32.085 96.4874 34.7216 96.4874 38.3593C96.4874 41.9675 99.3861 44.6317 102.934 44.6317C106.49 44.6317 109.389 41.9675 109.389 38.3593C109.389 34.7216 106.49 32.085 102.934 32.085ZM102.934 42.1611C100.988 42.1611 99.3125 40.5921 99.3125 38.3593C99.3125 36.097 100.988 34.5557 102.934 34.5557C104.881 34.5557 106.564 36.097 106.564 38.3593C106.564 40.5921 104.881 42.1611 102.934 42.1611V42.1611ZM88.8676 32.085C85.3117 32.085 82.4205 34.7216 82.4205 38.3593C82.4205 41.9675 85.3117 44.6317 88.8676 44.6317C92.4216 44.6317 95.3147 41.9675 95.3147 38.3593C95.3147 34.7216 92.4216 32.085 88.8676 32.085ZM88.8676 42.1611C86.9187 42.1611 85.2381 40.5921 85.2381 38.3593C85.2381 36.097 86.9187 34.5557 88.8676 34.5557C90.8146 34.5557 92.4896 36.097 92.4896 38.3593C92.4896 40.5921 90.8146 42.1611 88.8676 42.1611ZM72.1286 34.0081V36.6741H78.6493C78.4586 38.1639 77.9487 39.2591 77.1669 40.0224C76.2152 40.9443 74.7327 41.9675 72.1286 41.9675C68.1157 41.9675 64.9734 38.8055 64.9734 34.8875C64.9734 30.9696 68.1157 27.8075 72.1286 27.8075C74.2984 27.8075 75.8771 28.6354 77.0423 29.7084L78.9666 27.8297C77.3369 26.3104 75.169 25.1433 72.1286 25.1433C66.6257 25.1433 62.001 29.5148 62.001 34.8875C62.001 40.2602 66.6257 44.6317 72.1286 44.6317C75.1029 44.6317 77.3369 43.6804 79.0931 41.8956C80.8928 40.1385 81.4536 37.6679 81.4536 35.673C81.4536 35.0535 81.4008 34.4838 81.3064 34.0081H72.1286ZM140.576 36.0749C140.046 34.6718 138.409 32.085 135.074 32.085C131.769 32.085 129.017 34.6276 129.017 38.3593C129.017 41.8735 131.741 44.6317 135.391 44.6317C138.342 44.6317 140.046 42.8747 140.746 41.8514L138.556 40.4262C137.825 41.4697 136.83 42.1611 135.391 42.1611C133.961 42.1611 132.936 41.5213 132.279 40.2602L140.873 36.7884L140.576 36.0749V36.0749ZM131.814 38.1639C131.741 35.7449 133.738 34.5059 135.17 34.5059C136.292 34.5059 137.243 35.0535 137.561 35.8371L131.814 38.1639V38.1639ZM124.829 44.2501H127.654V25.8126H124.829V44.2501ZM120.202 33.4826H120.108C119.473 32.7488 118.263 32.085 116.729 32.085C113.512 32.085 110.569 34.8433 110.569 38.3796C110.569 41.8956 113.512 44.6317 116.729 44.6317C118.263 44.6317 119.473 43.9625 120.108 43.2065H120.202V44.1063C120.202 46.505 118.89 47.7938 116.773 47.7938C115.047 47.7938 113.976 46.5769 113.534 45.5536L111.077 46.5548C111.786 48.2178 113.661 50.2644 116.773 50.2644C120.085 50.2644 122.88 48.3617 122.88 43.732V32.4667H120.202V33.4826V33.4826ZM116.971 42.1611C115.024 42.1611 113.394 40.57 113.394 38.3796C113.394 36.1689 115.024 34.5557 116.971 34.5557C118.89 34.5557 120.402 36.1689 120.402 38.3796C120.402 40.57 118.89 42.1611 116.971 42.1611V42.1611ZM153.803 25.8126H147.046V44.2501H149.864V37.2641H153.803C156.932 37.2641 160.001 35.0535 160.001 31.5374C160.001 28.0233 156.925 25.8126 153.803 25.8126V25.8126ZM153.877 34.6995H149.864V28.3773H153.877C155.98 28.3773 157.181 30.0827 157.181 31.5374C157.181 32.9645 155.98 34.6995 153.877 34.6995ZM171.294 32.05C169.258 32.05 167.141 32.9276 166.27 34.8728L168.771 35.8961C169.309 34.8728 170.298 34.5409 171.345 34.5409C172.806 34.5409 174.289 35.3983 174.311 36.912V37.1056C173.801 36.8179 172.71 36.392 171.367 36.392C168.674 36.392 165.93 37.8394 165.93 40.5405C165.93 43.0111 168.136 44.6022 170.616 44.6022C172.512 44.6022 173.558 43.767 174.215 42.7954H174.311V44.2206H177.033V37.148C177.033 33.879 174.532 32.05 171.294 32.05ZM170.954 42.1538C170.032 42.1538 168.748 41.7076 168.748 40.5921C168.748 39.165 170.349 38.6174 171.736 38.6174C172.976 38.6174 173.558 38.8848 174.311 39.2369C174.09 40.9443 172.585 42.1538 170.954 42.1538V42.1538ZM186.947 32.4538L183.708 40.4464H183.612L180.264 32.4538H177.225L182.256 43.6232L179.386 49.8385H182.33L190.082 32.4538H186.947V32.4538ZM161.549 44.2501H164.374V25.8126H161.549V44.2501Z" fill="white"/>
<path d="M15.7651 11.1197C15.3213 11.5732 15.0645 12.2794 15.0645 13.1939V45.8135C15.0645 46.728 15.3213 47.4342 15.7651 47.8877L15.8746 47.9873L34.5964 29.7157V29.2843L15.8746 11.0127L15.7651 11.1197Z" fill="url(#paint0_linear_87_6142)"/>
<path d="M40.8294 35.8093L34.5957 29.7157V29.2843L40.837 23.1907L40.9767 23.27L48.368 27.376C50.4774 28.5413 50.4774 30.4588 48.368 31.6314L40.9767 35.73L40.8294 35.8093V35.8093Z" fill="url(#paint1_linear_87_6142)"/>
<path d="M40.977 35.7301L34.596 29.5001L15.7646 47.8878C16.4653 48.6069 17.6078 48.6936 18.907 47.9745L40.977 35.7301" fill="url(#paint2_linear_87_6142)"/>
<path d="M40.977 23.27L18.907 11.0256C17.6078 10.3139 16.4653 10.4006 15.7646 11.1197L34.596 29.5L40.977 23.27Z" fill="url(#paint3_linear_87_6142)"/>
<defs>
<linearGradient id="paint0_linear_87_6142" x1="32.9342" y1="46.1532" x2="8.18722" y2="20.8066" gradientUnits="userSpaceOnUse">
<stop stop-color="#00A0FF"/>
<stop offset="0.0066" stop-color="#00A1FF"/>
<stop offset="0.2601" stop-color="#00BEFF"/>
<stop offset="0.5122" stop-color="#00D2FF"/>
<stop offset="0.7604" stop-color="#00DFFF"/>
<stop offset="1" stop-color="#00E3FF"/>
</linearGradient>
<linearGradient id="paint1_linear_87_6142" x1="51.1147" y1="29.4979" x2="14.5595" y2="29.4979" gradientUnits="userSpaceOnUse">
<stop stop-color="#FFE000"/>
<stop offset="0.4087" stop-color="#FFBD00"/>
<stop offset="0.7754" stop-color="#FFA500"/>
<stop offset="1" stop-color="#FF9C00"/>
</linearGradient>
<linearGradient id="paint2_linear_87_6142" x1="37.5072" y1="26.1134" x2="3.94836" y2="-8.25867" gradientUnits="userSpaceOnUse">
<stop stop-color="#FF3A44"/>
<stop offset="1" stop-color="#C31162"/>
</linearGradient>
<linearGradient id="paint3_linear_87_6142" x1="11.0244" y1="58.7401" x2="26.0099" y2="43.3916" gradientUnits="userSpaceOnUse">
<stop stop-color="#32A071"/>
<stop offset="0.0685" stop-color="#2DA771"/>
<stop offset="0.4762" stop-color="#15CF74"/>
<stop offset="0.8009" stop-color="#06E775"/>
<stop offset="1" stop-color="#00F076"/>
</linearGradient>
</defs>
</svg>
