<svg width="45" height="50" viewBox="0 0 45 50" fill="none" xmlns="http://www.w3.org/2000/svg">
<g clip-path="url(#clip0_87_5211)">
<path d="M17.4414 21.4151V27.3273V35.4413L11.1644 31.7728C10.7514 31.5324 10.5002 31.0864 10.5002 30.6057V17.3599L17.4414 21.4186V21.4151Z" fill="url(#paint0_linear_87_5211)"/>
<path d="M11.7354 32.1105L12.8849 32.6818C14.7501 33.6086 16.9457 33.5354 18.7455 32.4833L27.5588 27.3306L34.5 31.3858L23.6529 37.7265C22.9405 38.1446 22.0629 38.1446 21.3506 37.7265L17.1212 35.253L11.7389 32.107L11.7354 32.1105Z" fill="url(#paint1_linear_87_5211)"/>
<path d="M22.9958 10.6357L29.4414 14.4018L17.4414 21.4149L10.5002 17.3561L22.0046 10.6357C22.3109 10.458 22.6895 10.458 22.9958 10.6357Z" fill="url(#paint2_linear_87_5211)"/>
<path d="M27.5588 13.3008L33.2646 16.6349C34.0285 17.0809 34.5 17.91 34.5 18.8019V39.4998L27.5588 35.441V27.327V21.4148V17.5547C27.5588 16.614 27.4074 15.6769 27.0564 14.8059C27.0185 14.7083 26.9738 14.6073 26.929 14.5098C25.9861 12.4333 24.3274 11.3882 23.6253 11.0015L27.5588 13.3008Z" fill="url(#paint3_linear_87_5211)"/>
<path d="M10.5 17.3597L23.0506 17.3423C23.9454 17.3423 24.8264 17.5792 25.6041 18.0286L33.588 22.6692C34.1524 22.9967 34.5 23.6029 34.5 24.2613V32.5112C34.1593 31.5845 33.5089 30.8041 32.6623 30.3094L10.5 17.3597Z" fill="url(#paint4_linear_87_5211)"/>
</g>
<defs>
<linearGradient id="paint0_linear_87_5211" x1="13.9175" y1="13.5206" x2="14.115" y2="59.4976" gradientUnits="userSpaceOnUse">
<stop offset="0.18" stop-color="#EFEFEF"/>
<stop offset="0.26" stop-color="#ECECEC"/>
<stop offset="0.31" stop-color="#E4E4E4"/>
<stop offset="0.34" stop-color="#D6D6D6"/>
<stop offset="0.38" stop-color="#C2C2C3"/>
<stop offset="0.41" stop-color="#A9A9A9"/>
<stop offset="0.43" stop-color="#8A8A8B"/>
<stop offset="0.45" stop-color="#777778"/>
</linearGradient>
<linearGradient id="paint1_linear_87_5211" x1="46.5172" y1="32.5042" x2="-10.8675" y2="32.9733" gradientUnits="userSpaceOnUse">
<stop offset="0.29" stop-color="#7E2056"/>
<stop offset="0.32" stop-color="#892968"/>
<stop offset="0.39" stop-color="#9C3886"/>
<stop offset="0.42" stop-color="#A33E92"/>
<stop offset="0.48" stop-color="#903D92"/>
<stop offset="0.54" stop-color="#753D93"/>
</linearGradient>
<linearGradient id="paint2_linear_87_5211" x1="10.514" y1="22.2127" x2="43.405" y2="0.726629" gradientUnits="userSpaceOnUse">
<stop offset="0.09" stop-color="#EFEFEF"/>
<stop offset="0.2" stop-color="#ECECEC"/>
<stop offset="0.27" stop-color="#E3E3E3"/>
<stop offset="0.33" stop-color="#D4D4D4"/>
<stop offset="0.39" stop-color="#BFBFBF"/>
<stop offset="0.44" stop-color="#A3A3A4"/>
<stop offset="0.49" stop-color="#828283"/>
<stop offset="0.5" stop-color="#777778"/>
</linearGradient>
<linearGradient id="paint3_linear_87_5211" x1="42.1088" y1="-0.735801" x2="11.4642" y2="58.8274" gradientUnits="userSpaceOnUse">
<stop offset="0.09" stop-color="#0C3994"/>
<stop offset="0.18" stop-color="#0E3994"/>
<stop offset="0.23" stop-color="#163A94"/>
<stop offset="0.28" stop-color="#243D95"/>
<stop offset="0.31" stop-color="#374097"/>
<stop offset="0.33" stop-color="#424298"/>
<stop offset="0.34" stop-color="#3E3E8E"/>
<stop offset="0.36" stop-color="#343473"/>
<stop offset="0.38" stop-color="#232549"/>
<stop offset="0.39" stop-color="#232548"/>
<stop offset="0.42" stop-color="#24254A"/>
<stop offset="0.45" stop-color="#282852"/>
<stop offset="0.47" stop-color="#2F2D61"/>
<stop offset="0.48" stop-color="#393575"/>
<stop offset="0.5" stop-color="#4A4197"/>
<stop offset="0.54" stop-color="#5C3F95"/>
<stop offset="0.57" stop-color="#6C3E94"/>
</linearGradient>
<linearGradient id="paint4_linear_87_5211" x1="22.4759" y1="47.9693" x2="22.5394" y2="-10.2711" gradientUnits="userSpaceOnUse">
<stop offset="0.24" stop-color="#C43E91"/>
<stop offset="0.28" stop-color="#C03D91"/>
<stop offset="0.32" stop-color="#B63D91"/>
<stop offset="0.35" stop-color="#A53D91"/>
<stop offset="0.38" stop-color="#8E3D92"/>
<stop offset="0.41" stop-color="#753D93"/>
<stop offset="0.44" stop-color="#683988"/>
<stop offset="0.5" stop-color="#46316E"/>
<stop offset="0.57" stop-color="#19264A"/>
</linearGradient>
<clipPath id="clip0_87_5211">
<rect width="24" height="29" fill="white" transform="matrix(-1 0 0 1 34.5 10.5)"/>
</clipPath>
</defs>
</svg>
