<svg width="61" height="73" viewBox="0 0 61 73" fill="none" xmlns="http://www.w3.org/2000/svg">
<g clip-path="url(#clip0_87_6376)">
<path d="M43.397 27.5995V42.278V62.4231L59.0895 53.315C60.1219 52.7182 60.75 51.611 60.75 50.4174V17.5312L43.397 27.6081V27.5995Z" fill="url(#paint0_linear_87_6376)"/>
<path d="M57.6614 54.154L54.7879 55.5725C50.1248 57.8734 44.6359 57.6917 40.1363 55.0795L18.103 42.2866L0.75 52.3549L27.8679 68.0973C29.6488 69.1353 31.8426 69.1353 33.6235 68.0973L44.1971 61.956L57.6528 54.1453L57.6614 54.154Z" fill="url(#paint1_linear_87_6376)"/>
<path d="M29.5111 0.837442L13.397 10.1878L43.397 27.5996L60.75 17.5227L31.9889 0.837442C31.2232 0.396308 30.2768 0.396308 29.5111 0.837442Z" fill="url(#paint2_linear_87_6376)"/>
<path d="M18.103 7.4544L3.83861 15.7322C1.92866 16.8393 0.75 18.8979 0.75 21.1123V72.5001L18.103 62.4232V42.278V27.5995V18.0157C18.103 15.6803 18.4816 13.3535 19.3591 11.1911C19.4538 10.9489 19.5656 10.698 19.6774 10.4558C22.0348 5.30063 26.1816 2.70572 27.9367 1.74561L18.103 7.4544Z" fill="url(#paint3_linear_87_6376)"/>
<path d="M60.75 17.5313L29.3735 17.488C27.1366 17.488 24.9341 18.0762 22.9897 19.192L3.0299 30.7134C1.61894 31.5265 0.75 33.0315 0.75 34.6663V55.1488C1.60174 52.848 3.22777 50.9104 5.34421 49.6822L60.75 17.5313Z" fill="url(#paint4_linear_87_6376)"/>
</g>
<defs>
<linearGradient id="paint0_linear_87_6376" x1="52.2068" y1="7.99929" x2="51.7198" y2="122.149" gradientUnits="userSpaceOnUse">
<stop offset="0.18" stop-color="#EFEFEF"/>
<stop offset="0.26" stop-color="#ECECEC"/>
<stop offset="0.31" stop-color="#E4E4E4"/>
<stop offset="0.34" stop-color="#D6D6D6"/>
<stop offset="0.38" stop-color="#C2C2C3"/>
<stop offset="0.41" stop-color="#A9A9A9"/>
<stop offset="0.43" stop-color="#8A8A8B"/>
<stop offset="0.45" stop-color="#777778"/>
</linearGradient>
<linearGradient id="paint1_linear_87_6376" x1="-29.293" y1="55.1314" x2="114.169" y2="56.3123" gradientUnits="userSpaceOnUse">
<stop offset="0.29" stop-color="#7E2056"/>
<stop offset="0.32" stop-color="#892968"/>
<stop offset="0.39" stop-color="#9C3886"/>
<stop offset="0.42" stop-color="#A33E92"/>
<stop offset="0.48" stop-color="#903D92"/>
<stop offset="0.54" stop-color="#753D93"/>
</linearGradient>
<linearGradient id="paint2_linear_87_6376" x1="60.7156" y1="29.5804" x2="-21.1708" y2="-24.2833" gradientUnits="userSpaceOnUse">
<stop offset="0.09" stop-color="#EFEFEF"/>
<stop offset="0.2" stop-color="#ECECEC"/>
<stop offset="0.27" stop-color="#E3E3E3"/>
<stop offset="0.33" stop-color="#D4D4D4"/>
<stop offset="0.39" stop-color="#BFBFBF"/>
<stop offset="0.44" stop-color="#A3A3A4"/>
<stop offset="0.49" stop-color="#828283"/>
<stop offset="0.5" stop-color="#777778"/>
</linearGradient>
<linearGradient id="paint3_linear_87_6376" x1="-18.2721" y1="-27.3952" x2="57.5043" y2="120.912" gradientUnits="userSpaceOnUse">
<stop offset="0.09" stop-color="#0C3994"/>
<stop offset="0.18" stop-color="#0E3994"/>
<stop offset="0.23" stop-color="#163A94"/>
<stop offset="0.28" stop-color="#243D95"/>
<stop offset="0.31" stop-color="#374097"/>
<stop offset="0.33" stop-color="#424298"/>
<stop offset="0.34" stop-color="#3E3E8E"/>
<stop offset="0.36" stop-color="#343473"/>
<stop offset="0.38" stop-color="#232549"/>
<stop offset="0.39" stop-color="#232548"/>
<stop offset="0.42" stop-color="#24254A"/>
<stop offset="0.45" stop-color="#282852"/>
<stop offset="0.47" stop-color="#2F2D61"/>
<stop offset="0.48" stop-color="#393575"/>
<stop offset="0.5" stop-color="#4A4197"/>
<stop offset="0.54" stop-color="#5C3F95"/>
<stop offset="0.57" stop-color="#6C3E94"/>
</linearGradient>
<linearGradient id="paint4_linear_87_6376" x1="30.8102" y1="93.5274" x2="30.6537" y2="-51.0694" gradientUnits="userSpaceOnUse">
<stop offset="0.24" stop-color="#C43E91"/>
<stop offset="0.28" stop-color="#C03D91"/>
<stop offset="0.32" stop-color="#B63D91"/>
<stop offset="0.35" stop-color="#A53D91"/>
<stop offset="0.38" stop-color="#8E3D92"/>
<stop offset="0.41" stop-color="#753D93"/>
<stop offset="0.44" stop-color="#683988"/>
<stop offset="0.5" stop-color="#46316E"/>
<stop offset="0.57" stop-color="#19264A"/>
</linearGradient>
<clipPath id="clip0_87_6376">
<rect width="60" height="72" fill="white" transform="translate(0.75 0.5)"/>
</clipPath>
</defs>
</svg>
