<svg width="184" height="44" viewBox="0 0 184 44" fill="none" xmlns="http://www.w3.org/2000/svg">
<g clip-path="url(#clip0_122_1102)">
<path d="M26.7817 16.5616V25.534V37.8415L36.4174 32.2799C37.0522 31.9104 37.4407 31.2377 37.4407 30.5082V10.4031L26.7817 16.5616Z" fill="url(#paint0_linear_122_1102)"/>
<path d="M35.5457 32.7822L33.7834 33.6444C30.9221 35.0466 27.5492 34.9329 24.7826 33.3412L11.2434 25.5247L0.584473 31.6831L17.2408 41.2999C18.3399 41.9347 19.6852 41.9347 20.7748 41.2999L27.2744 37.5479L35.5362 32.7727L35.5457 32.7822Z" fill="url(#paint1_linear_122_1102)"/>
<path d="M18.2545 0.208514L8.35352 5.92169L26.7816 16.5617L37.4405 10.4032L19.7799 0.208514C19.3061 -0.0662494 18.7282 -0.0662494 18.2545 0.208514Z" fill="url(#paint2_linear_122_1102)"/>
<path d="M11.2434 4.25418L2.47939 9.31361C1.30454 9.99578 0.584473 11.2464 0.584473 12.6013V44.0001L11.2434 37.8416V25.5341V16.5617V10.7064C11.2434 9.28519 11.4803 7.85453 12.0108 6.53756C12.0677 6.38596 12.134 6.23437 12.2098 6.08278C13.6594 2.93721 16.2081 1.34548 17.2787 0.758057L11.2434 4.24471V4.25418Z" fill="url(#paint3_linear_122_1102)"/>
<path d="M37.4406 10.4032L18.7946 10.3748C17.0039 10.3748 15.2511 10.839 13.7068 11.7296L1.98671 18.4661C1.12452 18.9587 0.584473 19.8872 0.584473 20.8821V33.398C1.10558 31.9863 2.10041 30.8114 3.4079 30.063L37.4406 10.4032Z" fill="url(#paint4_linear_122_1102)"/>
<path d="M57.4699 15.9269C58.1994 16.2585 58.7679 16.7323 59.1658 17.3386C59.5638 17.9545 59.7627 18.6745 59.7627 19.5083C59.7627 20.3421 59.5638 21.0527 59.1658 21.6685C58.7679 22.2844 58.2089 22.7581 57.4699 23.0802C56.7403 23.4024 55.8687 23.5729 54.8738 23.5729H52.6094V26.6711H50.0039V15.4153H54.8738C55.8687 15.4153 56.7309 15.5858 57.4699 15.9174V15.9269ZM56.5129 20.9484C56.9204 20.6074 57.1193 20.1336 57.1193 19.5083C57.1193 18.883 56.9204 18.3903 56.5129 18.0587C56.1055 17.7176 55.5086 17.5565 54.7317 17.5565H52.6094V21.4601H54.7317C55.5181 21.4601 56.1055 21.2895 56.5129 20.9579V20.9484Z" fill="white"/>
<path d="M61.6104 15.4248H64.2159V24.5583H69.8532V26.6806H61.6104V15.4248Z" fill="white"/>
<path d="M81.7533 26.6806H84.482L79.451 15.4248H76.8834L71.8713 26.6806H74.5337L76.8645 21.0527H76.8834L78.153 17.9829L79.4226 21.0527H79.4321L81.7533 26.6806Z" fill="white"/>
<path d="M90.3657 22.6919V26.6807H87.7602V22.6634L83.4019 15.4343H86.1684L89.1719 20.4369L92.1753 15.4343H94.7335L90.3657 22.7013V22.6919Z" fill="white"/>
<path d="M104.483 22.2559L102.976 23.8287V26.6711H100.39V15.4153H102.976V20.6737L107.96 15.4153H110.85L106.188 20.4273L111.125 26.6616H108.083L104.483 22.2465V22.2559Z" fill="white"/>
<path d="M112.915 15.4248H115.521V26.6806H112.915V15.4248Z" fill="white"/>
<path d="M128.51 15.4248V26.6806H126.369L120.76 19.8494V26.6806H118.193V15.4248H120.343L125.933 22.256V15.4248H128.501H128.51Z" fill="white"/>
<path d="M138.781 20.8727H141.159V25.4395C140.553 25.9037 139.842 26.2543 139.037 26.5006C138.231 26.747 137.426 26.8701 136.611 26.8701C135.446 26.8701 134.394 26.6238 133.456 26.1217C132.518 25.6195 131.789 24.9279 131.258 24.0467C130.727 23.1656 130.462 22.1613 130.462 21.0527C130.462 19.9442 130.727 18.9399 131.258 18.0588C131.789 17.1776 132.528 16.486 133.466 15.9838C134.404 15.4817 135.465 15.2354 136.649 15.2354C137.634 15.2354 138.525 15.4059 139.33 15.7375C140.136 16.0691 140.808 16.5523 141.358 17.1871L139.69 18.7315C138.885 17.8882 137.919 17.4619 136.782 17.4619C136.062 17.4619 135.427 17.6135 134.868 17.9072C134.309 18.2104 133.873 18.6273 133.57 19.1768C133.257 19.7263 133.106 20.3516 133.106 21.0527C133.106 21.7539 133.257 22.3697 133.57 22.9192C133.882 23.4688 134.309 23.8951 134.868 24.1983C135.417 24.5015 136.052 24.6531 136.753 24.6531C137.502 24.6531 138.174 24.492 138.781 24.1699V20.8727Z" fill="white"/>
<path d="M143.575 15.4248H148.682C149.904 15.4248 150.984 15.6617 151.922 16.1259C152.86 16.5902 153.59 17.2439 154.111 18.0966C154.632 18.9399 154.888 19.9252 154.888 21.0527C154.888 22.1802 154.632 23.1655 154.111 24.0088C153.59 24.852 152.86 25.5152 151.922 25.9795C150.984 26.4438 149.904 26.6806 148.682 26.6806H143.575V15.4248ZM148.559 24.5394C149.686 24.5394 150.577 24.2267 151.249 23.6014C151.922 22.9761 152.254 22.1233 152.254 21.0527C152.254 19.9821 151.922 19.1294 151.249 18.504C150.577 17.8787 149.686 17.5661 148.559 17.5661H146.18V24.5394H148.559Z" fill="white"/>
<path d="M159.464 26.1121C158.526 25.6099 157.796 24.9183 157.266 24.0277C156.735 23.1465 156.47 22.1517 156.47 21.0432C156.47 19.9347 156.735 18.9493 157.266 18.0587C157.796 17.1775 158.526 16.4764 159.464 15.9743C160.402 15.4721 161.454 15.2163 162.619 15.2163C163.784 15.2163 164.836 15.4721 165.774 15.9743C166.703 16.4764 167.442 17.1681 167.972 18.0587C168.512 18.9398 168.777 19.9347 168.777 21.0432C168.777 22.1517 168.512 23.1371 167.972 24.0277C167.432 24.9088 166.703 25.6099 165.774 26.1121C164.846 26.6142 163.794 26.8701 162.619 26.8701C161.444 26.8701 160.402 26.6142 159.464 26.1121ZM164.419 24.1887C164.959 23.8856 165.376 23.4592 165.679 22.9097C165.982 22.3602 166.134 21.7443 166.134 21.0432C166.134 20.3421 165.982 19.7262 165.679 19.1767C165.376 18.6272 164.95 18.2008 164.419 17.8976C163.879 17.5944 163.282 17.4428 162.619 17.4428C161.956 17.4428 161.359 17.5944 160.819 17.8976C160.279 18.2008 159.862 18.6272 159.559 19.1767C159.255 19.7262 159.104 20.3421 159.104 21.0432C159.104 21.7443 159.255 22.3602 159.559 22.9097C159.862 23.4592 160.288 23.8856 160.819 24.1887C161.359 24.4919 161.956 24.6435 162.619 24.6435C163.282 24.6435 163.879 24.4919 164.419 24.1887Z" fill="white"/>
<path d="M180.971 26.6806L180.952 19.9252L177.646 25.4868H176.471L173.174 20.0673V26.6711H170.729V15.4153H172.88L177.087 22.4075L181.237 15.4153H183.378L183.406 26.6711H180.962L180.971 26.6806Z" fill="white"/>
<path d="M79.2614 23.0801C79.2614 23.677 78.7782 24.1696 78.1719 24.1696C77.5655 24.1696 77.0823 23.6864 77.0823 23.0801C77.0823 22.4737 77.5655 21.9905 78.1719 21.9905C78.7782 21.9905 79.2614 22.4737 79.2614 23.0801Z" fill="#0C3994"/>
</g>
<defs>
<linearGradient id="paint0_linear_122_1102" x1="32.1917" y1="4.58568" x2="31.898" y2="74.3281" gradientUnits="userSpaceOnUse">
<stop offset="0.18" stop-color="#EFEFEF"/>
<stop offset="0.26" stop-color="#ECECEC"/>
<stop offset="0.31" stop-color="#E4E4E4"/>
<stop offset="0.34" stop-color="#D6D6D6"/>
<stop offset="0.38" stop-color="#C2C2C3"/>
<stop offset="0.41" stop-color="#A9A9A9"/>
<stop offset="0.43" stop-color="#8A8A8B"/>
<stop offset="0.45" stop-color="#777778"/>
</linearGradient>
<linearGradient id="paint1_linear_122_1102" x1="-17.872" y1="33.3791" x2="70.2606" y2="34.1086" gradientUnits="userSpaceOnUse">
<stop offset="0.29" stop-color="#7E2056"/>
<stop offset="0.32" stop-color="#892968"/>
<stop offset="0.39" stop-color="#9C3886"/>
<stop offset="0.42" stop-color="#A33E92"/>
<stop offset="0.48" stop-color="#903D92"/>
<stop offset="0.54" stop-color="#753D93"/>
</linearGradient>
<linearGradient id="paint2_linear_122_1102" x1="37.4216" y1="17.7649" x2="-12.718" y2="-15.3961" gradientUnits="userSpaceOnUse">
<stop offset="0.09" stop-color="#EFEFEF"/>
<stop offset="0.2" stop-color="#ECECEC"/>
<stop offset="0.27" stop-color="#E3E3E3"/>
<stop offset="0.33" stop-color="#D4D4D4"/>
<stop offset="0.39" stop-color="#BFBFBF"/>
<stop offset="0.44" stop-color="#A3A3A4"/>
<stop offset="0.49" stop-color="#828283"/>
<stop offset="0.5" stop-color="#777778"/>
</linearGradient>
<linearGradient id="paint3_linear_122_1102" x1="-11.1072" y1="-17.0447" x2="35.053" y2="73.7787" gradientUnits="userSpaceOnUse">
<stop offset="0.09" stop-color="#0C3994"/>
<stop offset="0.18" stop-color="#0E3994"/>
<stop offset="0.23" stop-color="#163A94"/>
<stop offset="0.28" stop-color="#243D95"/>
<stop offset="0.31" stop-color="#374097"/>
<stop offset="0.33" stop-color="#424298"/>
<stop offset="0.34" stop-color="#3E3E8E"/>
<stop offset="0.36" stop-color="#343473"/>
<stop offset="0.38" stop-color="#232549"/>
<stop offset="0.39" stop-color="#232548"/>
<stop offset="0.42" stop-color="#24254A"/>
<stop offset="0.45" stop-color="#282852"/>
<stop offset="0.47" stop-color="#2F2D61"/>
<stop offset="0.48" stop-color="#393575"/>
<stop offset="0.5" stop-color="#4A4197"/>
<stop offset="0.54" stop-color="#5C3F95"/>
<stop offset="0.57" stop-color="#6C3E94"/>
</linearGradient>
<linearGradient id="paint4_linear_122_1102" x1="19.0505" y1="56.8382" x2="18.9557" y2="-31.5029" gradientUnits="userSpaceOnUse">
<stop offset="0.24" stop-color="#C43E91"/>
<stop offset="0.28" stop-color="#C03D91"/>
<stop offset="0.32" stop-color="#B63D91"/>
<stop offset="0.35" stop-color="#A53D91"/>
<stop offset="0.38" stop-color="#8E3D92"/>
<stop offset="0.41" stop-color="#753D93"/>
<stop offset="0.44" stop-color="#683988"/>
<stop offset="0.5" stop-color="#46316E"/>
<stop offset="0.57" stop-color="#19264A"/>
</linearGradient>
<clipPath id="clip0_122_1102">
<rect width="182.831" height="44" fill="white" transform="translate(0.584473)"/>
</clipPath>
</defs>
</svg>
