<svg width="25" height="24" viewBox="0 0 25 24" fill="none" xmlns="http://www.w3.org/2000/svg">
<path d="M21.1136 8.52269C21.1136 10.1042 19.8315 11.3863 18.25 11.3863C16.6685 11.3863 15.3864 10.1042 15.3864 8.52269C15.3864 6.94115 16.6685 5.65906 18.25 5.65906C19.8315 5.65906 21.1136 6.94115 21.1136 8.52269Z" fill="white"/>
<path d="M17.0094 12.6363C17.3231 13.25 17.5 13.9452 17.5 14.6817V18.0681H23.5V14.8863C23.5 13.3883 22.559 12.1102 21.2359 11.6107C20.4629 12.3582 19.4102 12.8182 18.25 12.8182C17.8187 12.8182 17.4022 12.7546 17.0094 12.6363Z" fill="white"/>
<path d="M13.0909 7.09091C13.0909 9.35026 11.2594 11.1818 9.00001 11.1818C6.74067 11.1818 4.9091 9.35026 4.9091 7.09091C4.9091 4.83156 6.74067 3 9.00001 3C11.2594 3 13.0909 4.83156 13.0909 7.09091Z" fill="white"/>
<path d="M4.46299 11.2227C2.78492 11.481 1.5 12.9313 1.5 14.6817V20.7272H16.5V14.6817C16.5 12.9313 15.2151 11.481 13.537 11.2227C12.4147 12.4543 10.7976 13.2273 9 13.2273C7.20238 13.2273 5.5853 12.4543 4.46299 11.2227Z" fill="white"/>
</svg>
